# xmcd
#
# Track frame offsets:
#	150
#	51564
#	59259
#	92114
#	122634
#	131488
#	142611
#	178473
#	188732
#	202393
#	205495
#	226539
#	231095
#	243525
#	251308
#	271982
#
# Disc length: 3718 seconds
#
# Revision: 0
# Processed by: cddbd v1.5.2PL0 Copyright (c) Steve Scherf et al.
# Submitted via: audiograbber 1.83.01
#
DISCID=ec0e8410
DTITLE=Lilo Wollny - Wir stellen uns quer - Atomkraft: Gefahr and Widerstand
DYEAR=2004
DGENRE=Vocal
TTITLE0=Wie Lilo Wollny zur Bürgerinitiative kam
TTITLE1=Die Atommüllmenge wächst täglich
TTITLE2=Der Verkauf des Geländes
TTITLE3=Helmut Schmid und Ernst Albrecht bringen das Zwischenlager nach Gorlebe
TTITLE3=n
TTITLE4=Die ungesicherte Leichtbauhalle, in der Deutschlands Atommüll steht, ..
TTITLE4=
TTITLE5=wie eine Kartoffelscheune
TTITLE6=Warum der Gorlebener Salzstock für Endlagerung nicht geeignet ist
TTITLE7=Der Verfall der Behälter
TTITLE8=Die Unmöglichkeit geologischer Prognosen
TTITLE9=Die Gefährlichkeit von Plutonium
TTITLE10=Die Benrather Kamingespräche
TTITLE11=Indemnität
TTITLE12=Warum handeln Politiker so?
TTITLE13=Engagement greift Raum
TTITLE14=Was kann ich denn tun?
TTITLE15=Vom langen Leben der Anti-AKW-Bewegung
EXTD=
EXTT0=
EXTT1=
EXTT2=
EXTT3=
EXTT4=
EXTT5=
EXTT6=
EXTT7=
EXTT8=
EXTT9=
EXTT10=
EXTT11=
EXTT12=
EXTT13=
EXTT14=
EXTT15=
PLAYORDER=
